<svg width="24" height="24" viewBox="0 0 24 24" fill="none" xmlns="http://www.w3.org/2000/svg">
<circle cx="12" cy="12" r="11.5" fill="#ED826B" stroke="#C52F0F"/>
<path d="M12.4917 15.2427H11.4619L11.4062 5.49219H12.5566L12.4917 15.2427ZM11.2764 18.3506C11.2764 18.1403 11.3444 17.964 11.4805 17.8218C11.6165 17.6733 11.8021 17.5991 12.0371 17.5991C12.2721 17.5991 12.4577 17.6733 12.5938 17.8218C12.736 17.964 12.8071 18.1403 12.8071 18.3506C12.8071 18.5547 12.736 18.7279 12.5938 18.8701C12.4577 19.0062 12.2721 19.0742 12.0371 19.0742C11.8021 19.0742 11.6165 19.0062 11.4805 18.8701C11.3444 18.7279 11.2764 18.5547 11.2764 18.3506Z" fill="white"/>
</svg>
