<svg width="42" height="50" viewBox="0 0 42 50" fill="none" xmlns="http://www.w3.org/2000/svg">
<rect width="42" height="42" fill="#4B6F87"/>
<path d="M6.5 15.5C5 15.5 5 18.5 6.5 18.5H31V15.5H6.5Z" fill="#E8E8E8"/>
<path d="M31 15.5V18.5L38.5 14.5V11.5L31 15.5Z" fill="#E8E8E8"/>
<path d="M31 21.5H6.5C5 21.5 5 24.5 6.5 24.5H31V21.5Z" fill="#E8E8E8"/>
<path d="M31 21.5V24.5L38.5 20.5V17.5L31 21.5Z" fill="#E8E8E8"/>
<path d="M31 27.5H6.5C5 27.5 5 30.5 6.5 30.5H31V27.5Z" fill="#E8E8E8"/>
<path d="M31 27.5V30.5L38.5 26.5V23.5L31 27.5Z" fill="#E8E8E8"/>
<path d="M6 14C6 14 4 15 4 17C4 19 6 20 6 20M6 14H31M6 14L13.5 10H38.5M6 20H31M6 20C6 20 4 21 4 23C4 25 6 26 6 26M31 20L38.5 16M31 20V18.5M31 20V21.5M31 14L38.5 10M31 14V15.5M6 26H31M6 26C6 26 4 27 4 29C4 31 6 32 6 32H31M31 26L38.5 22M31 26V24.5M31 26V27.5M31 32L38.5 28V26.5M31 32V30.5M38.5 10V11.5M38.5 22V23.5M38.5 22V20.5M38.5 16V17.5M38.5 16V14.5M6.5 15.5C5 15.5 5 18.5 6.5 18.5M6.5 15.5C8 15.5 31 15.5 31 15.5M6.5 15.5H31M6.5 18.5C8 18.5 31 18.5 31 18.5M6.5 18.5H31M31 18.5V15.5M31 18.5L38.5 14.5M31 15.5L38.5 11.5M6.5 21.5C8 21.5 31 21.5 31 21.5M6.5 21.5C5 21.5 5 24.5 6.5 24.5M6.5 21.5H31M31 21.5V24.5M31 21.5L38.5 17.5M6.5 24.5C8 24.5 31 24.5 31 24.5M6.5 24.5H31M31 24.5L38.5 20.5M6.5 27.5C8 27.5 31 27.5 31 27.5M6.5 27.5C5 27.5 5 30.5 6.5 30.5M6.5 27.5H31M31 27.5V30.5M31 27.5L38.5 23.5M6.5 30.5C8 30.5 31 30.5 31 30.5M6.5 30.5H31M31 30.5L38.5 26.5M38.5 26.5V23.5M38.5 20.5V17.5M38.5 14.5V11.5" stroke="black"/>
<path d="M6 14H31L38.5 10H13.5L6 14Z" fill="#B0C7D0"/>
<path d="M6 14C6 14 4 15 4 17C4 19 6 20 6 20H31V18.5H6.5C5 18.5 5 15.5 6.5 15.5H31V14H6Z" fill="#B0C7D0"/>
<path d="M38.5 10L31 14V15.5L38.5 11.5V10Z" fill="#B0C7D0"/>
<path d="M31 20L38.5 16V14.5L31 18.5V20Z" fill="#B0C7D0"/>
<path d="M38.5 16L31 20V21.5L38.5 17.5V16Z" fill="#B0C7D0"/>
<path d="M31 20H6C6 20 4 21 4 23C4 25 6 26 6 26H31V24.5H6.5C5 24.5 5 21.5 6.5 21.5H31V20Z" fill="#B0C7D0"/>
<path d="M31 26L38.5 22V20.5L31 24.5V26Z" fill="#B0C7D0"/>
<path d="M38.5 22L31 26V27.5L38.5 23.5V22Z" fill="#B0C7D0"/>
<path d="M31 26H6C6 26 4 27 4 29C4 31 6 32 6 32H31V30.5H6.5C5 30.5 5 27.5 6.5 27.5H31V26Z" fill="#B0C7D0"/>
<path d="M31 32L38.5 28V26.5L31 30.5V32Z" fill="#B0C7D0"/>
<path d="M6 14C6 14 4 15 4 17C4 19 6 20 6 20M6 14H31M6 14L13.5 10H38.5M6 20H31M6 20C6 20 4 21 4 23C4 25 6 26 6 26M31 20L38.5 16M31 20V18.5M31 20V21.5M31 14L38.5 10M31 14V15.5M6 26H31M6 26C6 26 4 27 4 29C4 31 6 32 6 32H31M31 26L38.5 22M31 26V24.5M31 26V27.5M31 32L38.5 28V26.5M31 32V30.5M38.5 10V11.5M38.5 22V23.5M38.5 22V20.5M38.5 16V17.5M38.5 16V14.5M6.5 15.5C5 15.5 5 18.5 6.5 18.5M6.5 15.5C8 15.5 31 15.5 31 15.5M6.5 15.5H31M6.5 18.5C8 18.5 31 18.5 31 18.5M6.5 18.5H31M31 18.5V15.5M31 18.5L38.5 14.5M31 15.5L38.5 11.5M6.5 21.5C8 21.5 31 21.5 31 21.5M6.5 21.5C5 21.5 5 24.5 6.5 24.5M6.5 21.5H31M31 21.5V24.5M31 21.5L38.5 17.5M6.5 24.5C8 24.5 31 24.5 31 24.5M6.5 24.5H31M31 24.5L38.5 20.5M6.5 27.5C8 27.5 31 27.5 31 27.5M6.5 27.5C5 27.5 5 30.5 6.5 30.5M6.5 27.5H31M31 27.5V30.5M31 27.5L38.5 23.5M6.5 30.5C8 30.5 31 30.5 31 30.5M6.5 30.5H31M31 30.5L38.5 26.5M38.5 26.5V23.5M38.5 20.5V17.5M38.5 14.5V11.5" stroke="black"/>
<rect x="4.5" y="39.5" width="33" height="10" rx="1.5" fill="#E1EAF0" stroke="#4B6F87"/>
<path d="M10.541 48C10.4883 47.8506 10.4546 47.6294 10.4399 47.3364C10.2554 47.5767 10.0195 47.7627 9.73242 47.8945C9.44824 48.0234 9.14648 48.0879 8.82715 48.0879C8.37012 48.0879 7.99951 47.9604 7.71533 47.7056C7.43408 47.4507 7.29346 47.1284 7.29346 46.7388C7.29346 46.2759 7.48535 45.9097 7.86914 45.6401C8.25586 45.3706 8.79346 45.2358 9.48193 45.2358H10.4355V44.6953C10.4355 44.3555 10.3301 44.0889 10.1191 43.8955C9.91113 43.6992 9.60645 43.6011 9.20508 43.6011C8.83887 43.6011 8.53564 43.6948 8.29541 43.8823C8.05518 44.0698 7.93506 44.2954 7.93506 44.5591L7.40771 44.5547C7.40771 44.1768 7.5835 43.8501 7.93506 43.5747C8.28662 43.2964 8.71875 43.1572 9.23145 43.1572C9.76172 43.1572 10.1792 43.2905 10.4839 43.5571C10.7915 43.8208 10.9497 44.1899 10.9585 44.6646V46.9146C10.9585 47.3745 11.0068 47.7188 11.1035 47.9473V48H10.541ZM8.88867 47.6221C9.24023 47.6221 9.55371 47.5371 9.8291 47.3672C10.1074 47.1973 10.3096 46.9702 10.4355 46.686V45.6401H9.49512C8.9707 45.646 8.56055 45.7427 8.26465 45.9302C7.96875 46.1147 7.8208 46.3696 7.8208 46.6948C7.8208 46.9614 7.91895 47.1826 8.11523 47.3584C8.31445 47.5342 8.57227 47.6221 8.88867 47.6221ZM14.562 43.6934C14.4507 43.6729 14.332 43.6626 14.2061 43.6626C13.8779 43.6626 13.5996 43.7549 13.3711 43.9395C13.1455 44.1211 12.9844 44.3862 12.8877 44.7349V48H12.3647V43.2451H12.8789L12.8877 44.001C13.166 43.4385 13.6128 43.1572 14.228 43.1572C14.3745 43.1572 14.4902 43.1763 14.5752 43.2144L14.562 43.6934ZM17.0669 47.644C17.4331 47.644 17.7393 47.5415 17.9854 47.3364C18.2344 47.1284 18.3691 46.8604 18.3896 46.5322H18.895C18.8804 46.8223 18.7896 47.0874 18.6226 47.3276C18.4556 47.5649 18.2329 47.751 17.9546 47.8857C17.6792 48.0205 17.3833 48.0879 17.0669 48.0879C16.4429 48.0879 15.9478 47.8711 15.5815 47.4375C15.2183 47.0039 15.0366 46.4209 15.0366 45.6885V45.5303C15.0366 45.0615 15.1187 44.647 15.2827 44.2866C15.4468 43.9263 15.6812 43.6479 15.9858 43.4517C16.2935 43.2554 16.6523 43.1572 17.0625 43.1572C17.584 43.1572 18.0132 43.3125 18.3501 43.623C18.6899 43.9336 18.8716 44.3423 18.895 44.8491H18.3896C18.3662 44.4771 18.2314 44.1768 17.9854 43.9482C17.7422 43.7197 17.4346 43.6055 17.0625 43.6055C16.5879 43.6055 16.2188 43.7769 15.9551 44.1196C15.6943 44.4624 15.564 44.9429 15.564 45.561V45.7148C15.564 46.3213 15.6943 46.7944 15.9551 47.1343C16.2188 47.4741 16.5894 47.644 17.0669 47.644ZM20.4727 44.0493C20.6455 43.7651 20.8667 43.5454 21.1362 43.3901C21.4058 43.2349 21.7002 43.1572 22.0195 43.1572C22.5293 43.1572 22.9087 43.3008 23.1577 43.5879C23.4067 43.875 23.5327 44.3057 23.5356 44.8799V48H23.0127V44.8755C23.0098 44.4507 22.9189 44.1343 22.7402 43.9263C22.5645 43.7183 22.2817 43.6143 21.8921 43.6143C21.5669 43.6143 21.2783 43.7168 21.0264 43.9219C20.7773 44.124 20.5928 44.3979 20.4727 44.7437V48H19.9497V41.25H20.4727V44.0493ZM25.478 48H24.9507V43.2451H25.478V48ZM24.8584 41.8696C24.8584 41.77 24.8906 41.6865 24.9551 41.6191C25.0195 41.5488 25.1074 41.5137 25.2188 41.5137C25.3301 41.5137 25.418 41.5488 25.4824 41.6191C25.5498 41.6865 25.5835 41.77 25.5835 41.8696C25.5835 41.9692 25.5498 42.0527 25.4824 42.1201C25.418 42.1875 25.3301 42.2212 25.2188 42.2212C25.1074 42.2212 25.0195 42.1875 24.9551 42.1201C24.8906 42.0527 24.8584 41.9692 24.8584 41.8696ZM28.3916 47.2749L29.8374 43.2451H30.3779L28.6025 48H28.1763L26.3921 43.2451H26.9326L28.3916 47.2749ZM33.0234 48.0879C32.6191 48.0879 32.2529 47.9883 31.9248 47.7891C31.5996 47.5898 31.3462 47.313 31.1646 46.9585C30.9829 46.6011 30.8921 46.2012 30.8921 45.7588V45.5698C30.8921 45.1128 30.98 44.7012 31.1558 44.335C31.3345 43.9688 31.582 43.6816 31.8984 43.4736C32.2148 43.2627 32.5576 43.1572 32.9268 43.1572C33.5039 43.1572 33.9609 43.355 34.2979 43.7505C34.6377 44.1431 34.8076 44.6807 34.8076 45.3633V45.6577H31.415V45.7588C31.415 46.2979 31.5688 46.7476 31.8765 47.1079C32.187 47.4653 32.5767 47.644 33.0454 47.644C33.3267 47.644 33.5742 47.5928 33.7881 47.4902C34.0049 47.3877 34.2012 47.2236 34.377 46.998L34.7065 47.2485C34.3198 47.8081 33.7588 48.0879 33.0234 48.0879ZM32.9268 43.6055C32.5312 43.6055 32.1973 43.7505 31.9248 44.0405C31.6553 44.3306 31.4912 44.7202 31.4326 45.2095H34.2847V45.1523C34.27 44.6953 34.1396 44.3232 33.8936 44.0361C33.6475 43.749 33.3252 43.6055 32.9268 43.6055Z" fill="black"/>
</svg>
