<svg width="25" height="25" viewBox="0 0 25 25" fill="none" xmlns="http://www.w3.org/2000/svg">
<rect width="25" height="25" rx="12.5" fill="#E1EAF0"/>
<path d="M5.42875 7.55025V17.4497H8.25718L16.0354 14V7.55025H5.42875Z" fill="#5C7C92"/>
<path d="M5.42875 17.4497V7.55025H16.0354M5.42875 17.4497H19.5709M5.42875 17.4497H8.25718M19.5709 17.4497V7.55025H16.0354M19.5709 17.4497H8.25718M8.25718 17.4497L16.0354 14V7.55025" stroke="#B0C7D0"/>
<path d="M10.5225 13.4243C10.8125 13.4243 11.0659 13.3364 11.2827 13.1606C11.4995 12.9849 11.6196 12.7651 11.6431 12.5015H12.4121C12.3975 12.7739 12.3037 13.0332 12.1309 13.2793C11.958 13.5254 11.7266 13.7217 11.4365 13.8682C11.1494 14.0146 10.8447 14.0879 10.5225 14.0879C9.875 14.0879 9.35938 13.8726 8.97559 13.4419C8.59473 13.0083 8.4043 12.4165 8.4043 11.6665V11.5303C8.4043 11.0674 8.48926 10.6558 8.65918 10.2954C8.8291 9.93506 9.07227 9.65527 9.38867 9.45605C9.70801 9.25684 10.0845 9.15723 10.5181 9.15723C11.0513 9.15723 11.4937 9.31689 11.8452 9.63623C12.1997 9.95557 12.3887 10.3701 12.4121 10.8799H11.6431C11.6196 10.5723 11.5024 10.3203 11.2915 10.124C11.0835 9.9248 10.8257 9.8252 10.5181 9.8252C10.105 9.8252 9.78418 9.97461 9.55566 10.2734C9.33008 10.5693 9.21729 10.9985 9.21729 11.561V11.7148C9.21729 12.2627 9.33008 12.6846 9.55566 12.9805C9.78125 13.2764 10.1035 13.4243 10.5225 13.4243Z" fill="#E1EAF0"/>
</svg>
