<svg width="62" height="62" viewBox="0 0 62 62" fill="none" xmlns="http://www.w3.org/2000/svg">
<rect x="6.85791" y="5.88129" width="48.8125" height="48.8125" rx="12.5" fill="#B0C7D0"/>
<path d="M13.3529 18.6471V43.3529L20.4118 43.3529L39.8235 34.7435L39.8235 18.6471H13.3529Z" fill="#4B6F87"/>
<path d="M13.3529 43.3529V18.6471H39.8235M13.3529 43.3529L48.6471 43.3529M13.3529 43.3529L20.4118 43.3529M48.6471 43.3529V18.6471L39.8235 18.6471M48.6471 43.3529L20.4118 43.3529M20.4118 43.3529L39.8235 34.7435L39.8235 18.6471" stroke="#4B6F87"/>
<path d="M18.166 28.9493C18.4561 28.9493 18.7095 28.8615 18.9263 28.6857C19.1431 28.5099 19.2632 28.2902 19.2866 28.0265H20.0557C20.041 28.299 19.9473 28.5582 19.7744 28.8043C19.6016 29.0504 19.3701 29.2467 19.0801 29.3932C18.793 29.5397 18.4883 29.6129 18.166 29.6129C17.5186 29.6129 17.0029 29.3976 16.6191 28.9669C16.2383 28.5333 16.0479 27.9415 16.0479 27.1915V27.0553C16.0479 26.5924 16.1328 26.1808 16.3027 25.8204C16.4727 25.4601 16.7158 25.1803 17.0322 24.9811C17.3516 24.7819 17.728 24.6823 18.1616 24.6823C18.6948 24.6823 19.1372 24.8419 19.4888 25.1613C19.8433 25.4806 20.0322 25.8951 20.0557 26.4049H19.2866C19.2632 26.0973 19.146 25.8453 18.9351 25.649C18.7271 25.4498 18.4692 25.3502 18.1616 25.3502C17.7485 25.3502 17.4277 25.4996 17.1992 25.7985C16.9736 26.0944 16.8608 26.5236 16.8608 27.0861V27.2399C16.8608 27.7877 16.9736 28.2096 17.1992 28.5055C17.4248 28.8014 17.7471 28.9493 18.166 28.9493ZM21.853 29.525H21.04V22.775H21.853V29.525ZM25.1313 29.6129C24.4868 29.6129 23.9624 29.402 23.5581 28.9801C23.1538 28.5553 22.9517 27.9884 22.9517 27.2794V27.13C22.9517 26.6583 23.041 26.2379 23.2197 25.8688C23.4014 25.4967 23.6533 25.2067 23.9756 24.9987C24.3008 24.7877 24.6523 24.6823 25.0303 24.6823C25.6484 24.6823 26.1289 24.8859 26.4717 25.2931C26.8145 25.7003 26.9858 26.2833 26.9858 27.0421V27.3805H23.7646C23.7764 27.8492 23.9126 28.2286 24.1733 28.5187C24.437 28.8058 24.771 28.9493 25.1753 28.9493C25.4624 28.9493 25.7056 28.8907 25.9048 28.7736C26.104 28.6564 26.2783 28.5011 26.4277 28.3077L26.9243 28.6945C26.5259 29.3068 25.9282 29.6129 25.1313 29.6129ZM25.0303 25.3502C24.7021 25.3502 24.4268 25.4703 24.2041 25.7106C23.9814 25.9479 23.8438 26.2819 23.791 26.7125H26.1729V26.651C26.1494 26.2379 26.0381 25.9186 25.8389 25.693C25.6396 25.4645 25.3701 25.3502 25.0303 25.3502ZM30.8662 29.525C30.8193 29.4313 30.7812 29.2643 30.752 29.024C30.374 29.4166 29.9229 29.6129 29.3984 29.6129C28.9297 29.6129 28.5444 29.4811 28.2427 29.2174C27.9438 28.9508 27.7944 28.6139 27.7944 28.2067C27.7944 27.7115 27.9819 27.3278 28.3569 27.0553C28.7349 26.7799 29.2651 26.6422 29.9478 26.6422H30.7388V26.2687C30.7388 25.9845 30.6538 25.7589 30.4839 25.5919C30.314 25.422 30.0635 25.337 29.7324 25.337C29.4424 25.337 29.1992 25.4103 29.0029 25.5568C28.8066 25.7032 28.7085 25.8805 28.7085 26.0885H27.8911C27.8911 25.8512 27.9746 25.6227 28.1416 25.403C28.3115 25.1803 28.54 25.0045 28.8271 24.8756C29.1172 24.7467 29.4351 24.6823 29.7808 24.6823C30.3286 24.6823 30.7578 24.8199 31.0684 25.0953C31.3789 25.3678 31.54 25.7443 31.5518 26.2247V28.4132C31.5518 28.8497 31.6074 29.1969 31.7188 29.4547V29.525H30.8662ZM29.5171 28.9054C29.772 28.9054 30.0137 28.8395 30.2422 28.7076C30.4707 28.5758 30.6362 28.4044 30.7388 28.1935V27.2179H30.1016C29.1055 27.2179 28.6074 27.5094 28.6074 28.0924C28.6074 28.3473 28.6924 28.5465 28.8623 28.6901C29.0322 28.8336 29.2505 28.9054 29.5171 28.9054ZM35.1245 25.4996C35.0015 25.4791 34.8682 25.4689 34.7246 25.4689C34.1914 25.4689 33.8296 25.6959 33.6392 26.15V29.525H32.8262V24.7701H33.6172L33.6304 25.3195C33.897 24.8947 34.2749 24.6823 34.7642 24.6823C34.9224 24.6823 35.0425 24.7028 35.1245 24.7438V25.4996Z" fill="#E1EAF0"/>
</svg>
