<svg width="42" height="50" viewBox="0 0 42 50" fill="none" xmlns="http://www.w3.org/2000/svg">
<rect width="42" height="42" fill="#4B6F87"/>
<rect x="4.5" y="39.5" width="33" height="10" rx="1.5" fill="#E1EAF0" stroke="#4B6F87"/>
<path d="M16.2495 48V43.6758H15.4585V43.2451H16.2495V42.7573C16.2495 42.2505 16.3872 41.8579 16.6626 41.5796C16.938 41.2983 17.3262 41.1577 17.8271 41.1577C18.2197 41.1577 18.624 41.2441 19.04 41.417L18.9521 41.8696C18.5947 41.7144 18.2314 41.6367 17.8623 41.6367C17.1387 41.6367 16.7769 42.0132 16.7769 42.7661V43.2451H17.8887V43.6758H16.7769V48H16.2495ZM19.3257 48H18.7983V43.2451H19.3257V48ZM21.356 48H20.8286V41.25H21.356V48ZM24.6299 48.0879C24.2256 48.0879 23.8594 47.9883 23.5312 47.7891C23.2061 47.5898 22.9526 47.313 22.771 46.9585C22.5894 46.6011 22.4985 46.2012 22.4985 45.7588V45.5698C22.4985 45.1128 22.5864 44.7012 22.7622 44.335C22.9409 43.9688 23.1885 43.6816 23.5049 43.4736C23.8213 43.2627 24.1641 43.1572 24.5332 43.1572C25.1104 43.1572 25.5674 43.355 25.9043 43.7505C26.2441 44.1431 26.4141 44.6807 26.4141 45.3633V45.6577H23.0215V45.7588C23.0215 46.2979 23.1753 46.7476 23.4829 47.1079C23.7935 47.4653 24.1831 47.644 24.6519 47.644C24.9331 47.644 25.1807 47.5928 25.3945 47.4902C25.6113 47.3877 25.8076 47.2236 25.9834 46.998L26.313 47.2485C25.9263 47.8081 25.3652 48.0879 24.6299 48.0879ZM24.5332 43.6055C24.1377 43.6055 23.8037 43.7505 23.5312 44.0405C23.2617 44.3306 23.0977 44.7202 23.0391 45.2095H25.8911V45.1523C25.8765 44.6953 25.7461 44.3232 25.5 44.0361C25.2539 43.749 24.9316 43.6055 24.5332 43.6055Z" fill="black"/>
<path d="M11 5H26C29.3137 5 32 7.68629 32 11V36H11V5Z" fill="#E1EAF0"/>
<rect x="25" y="5" width="7" height="7" fill="#4B6F87"/>
<path d="M32 12L25 5V12H32Z" fill="#B0C7D0"/>
</svg>
