<svg width="42" height="50" viewBox="0 0 42 50" fill="none" xmlns="http://www.w3.org/2000/svg">
<rect width="42" height="42" fill="#4B6F87"/>
<path fill-rule="evenodd" clip-rule="evenodd" d="M38 3H4V23.5L14 13L22 23.5L31 19L38 23.5V3ZM27.5 9C27.5 7.34315 28.8431 6 30.5 6C32.1569 6 33.5 7.34315 33.5 9C33.5 10.6569 32.1568 11.9875 30.5 12C28.975 12.0115 27.5 10.6569 27.5 9Z" fill="#5C7C92"/>
<path fill-rule="evenodd" clip-rule="evenodd" d="M38 3H4V23.5L14 13L22 23.5L31 19L38 23.5V3ZM27.5 9C27.5 7.34315 28.8431 6 30.5 6C32.1569 6 33.5 7.34315 33.5 9C33.5 10.6569 32.1568 11.9875 30.5 12C28.975 12.0115 27.5 10.6569 27.5 9Z" fill="#E1EAF0"/>
<path d="M4 23.5V3H38V23.5M4 23.5V37H38V23.5M4 23.5C7.90524 19.3995 14 13 14 13M4 23.5L14 13M14 13L22 23.5L31 19L38 23.5M30.5 6C28.8431 6 27.5 7.34315 27.5 9C27.5 10.6569 28.975 12.0115 30.5 12C32.1568 11.9875 33.5 10.6569 33.5 9C33.5 7.34315 32.1569 6 30.5 6Z" stroke="black"/>
<rect x="4.5" y="39.5" width="33" height="10" rx="1.5" fill="#E1EAF0" stroke="#4B6F87"/>
<path d="M10.04 47H9.5127V42.2451H10.04V47ZM9.42041 40.8696C9.42041 40.77 9.45264 40.6865 9.51709 40.6191C9.58154 40.5488 9.66943 40.5137 9.78076 40.5137C9.89209 40.5137 9.97998 40.5488 10.0444 40.6191C10.1118 40.6865 10.1455 40.77 10.1455 40.8696C10.1455 40.9692 10.1118 41.0527 10.0444 41.1201C9.97998 41.1875 9.89209 41.2212 9.78076 41.2212C9.66943 41.2212 9.58154 41.1875 9.51709 41.1201C9.45264 41.0527 9.42041 40.9692 9.42041 40.8696ZM11.9517 42.2451L11.9692 43.0186C12.145 42.7314 12.3647 42.5161 12.6284 42.3726C12.8921 42.229 13.1851 42.1572 13.5073 42.1572C14.2573 42.1572 14.7334 42.4648 14.9355 43.0801C15.1055 42.7842 15.3325 42.5571 15.6167 42.3989C15.9009 42.2378 16.2144 42.1572 16.5571 42.1572C17.5767 42.1572 18.0967 42.7139 18.1172 43.8271V47H17.5898V43.8667C17.5869 43.4419 17.4946 43.127 17.313 42.9219C17.1343 42.7168 16.8413 42.6143 16.4341 42.6143C16.0562 42.6201 15.7368 42.7432 15.4761 42.9834C15.2153 43.2207 15.0703 43.5107 15.041 43.8535V47H14.5137V43.8271C14.5107 43.4199 14.4141 43.1167 14.2236 42.9175C14.0361 42.7153 13.7461 42.6143 13.3535 42.6143C13.0225 42.6143 12.7383 42.7095 12.501 42.8999C12.2637 43.0874 12.0879 43.3672 11.9736 43.7393V47H11.4463V42.2451H11.9517ZM22.4546 47C22.4019 46.8506 22.3682 46.6294 22.3535 46.3364C22.1689 46.5767 21.9331 46.7627 21.646 46.8945C21.3618 47.0234 21.0601 47.0879 20.7407 47.0879C20.2837 47.0879 19.9131 46.9604 19.6289 46.7056C19.3477 46.4507 19.207 46.1284 19.207 45.7388C19.207 45.2759 19.3989 44.9097 19.7827 44.6401C20.1694 44.3706 20.707 44.2358 21.3955 44.2358H22.3491V43.6953C22.3491 43.3555 22.2437 43.0889 22.0327 42.8955C21.8247 42.6992 21.52 42.6011 21.1187 42.6011C20.7524 42.6011 20.4492 42.6948 20.209 42.8823C19.9688 43.0698 19.8486 43.2954 19.8486 43.5591L19.3213 43.5547C19.3213 43.1768 19.4971 42.8501 19.8486 42.5747C20.2002 42.2964 20.6323 42.1572 21.145 42.1572C21.6753 42.1572 22.0928 42.2905 22.3975 42.5571C22.7051 42.8208 22.8633 43.1899 22.8721 43.6646V45.9146C22.8721 46.3745 22.9204 46.7188 23.0171 46.9473V47H22.4546ZM20.8022 46.6221C21.1538 46.6221 21.4673 46.5371 21.7427 46.3672C22.021 46.1973 22.2231 45.9702 22.3491 45.686V44.6401H21.4087C20.8843 44.646 20.4741 44.7427 20.1782 44.9302C19.8823 45.1147 19.7344 45.3696 19.7344 45.6948C19.7344 45.9614 19.8325 46.1826 20.0288 46.3584C20.228 46.5342 20.4858 46.6221 20.8022 46.6221ZM24.0674 44.5786C24.0674 43.8345 24.2314 43.2456 24.5596 42.812C24.8906 42.3755 25.3389 42.1572 25.9043 42.1572C26.5518 42.1572 27.0439 42.415 27.3809 42.9307L27.4072 42.2451H27.8994V46.9033C27.8994 47.5156 27.728 48.0005 27.3853 48.3579C27.0425 48.7153 26.5781 48.894 25.9922 48.894C25.6611 48.894 25.3447 48.8193 25.043 48.6699C24.7441 48.5234 24.5083 48.3271 24.3354 48.0811L24.6299 47.7646C25.002 48.2217 25.4443 48.4502 25.957 48.4502C26.3965 48.4502 26.7393 48.3198 26.9854 48.0591C27.2314 47.8013 27.3589 47.4424 27.3677 46.9824V46.3848C27.0308 46.8535 26.54 47.0879 25.8955 47.0879C25.3447 47.0879 24.9023 46.8682 24.5684 46.4287C24.2344 45.9893 24.0674 45.396 24.0674 44.6489V44.5786ZM24.5991 44.6709C24.5991 45.2773 24.7207 45.7563 24.9639 46.1079C25.207 46.4565 25.5498 46.6309 25.9922 46.6309C26.6396 46.6309 27.0981 46.3408 27.3677 45.7607V43.5503C27.2446 43.2456 27.0674 43.0142 26.8359 42.856C26.6045 42.6948 26.3262 42.6143 26.001 42.6143C25.5586 42.6143 25.2144 42.7886 24.9683 43.1372C24.7222 43.4829 24.5991 43.9941 24.5991 44.6709ZM31.1118 47.0879C30.7075 47.0879 30.3413 46.9883 30.0132 46.7891C29.688 46.5898 29.4346 46.313 29.2529 45.9585C29.0713 45.6011 28.9805 45.2012 28.9805 44.7588V44.5698C28.9805 44.1128 29.0684 43.7012 29.2441 43.335C29.4229 42.9688 29.6704 42.6816 29.9868 42.4736C30.3032 42.2627 30.646 42.1572 31.0151 42.1572C31.5923 42.1572 32.0493 42.355 32.3862 42.7505C32.7261 43.1431 32.896 43.6807 32.896 44.3633V44.6577H29.5034V44.7588C29.5034 45.2979 29.6572 45.7476 29.9648 46.1079C30.2754 46.4653 30.665 46.644 31.1338 46.644C31.415 46.644 31.6626 46.5928 31.8765 46.4902C32.0933 46.3877 32.2896 46.2236 32.4653 45.998L32.7949 46.2485C32.4082 46.8081 31.8472 47.0879 31.1118 47.0879ZM31.0151 42.6055C30.6196 42.6055 30.2856 42.7505 30.0132 43.0405C29.7437 43.3306 29.5796 43.7202 29.521 44.2095H32.373V44.1523C32.3584 43.6953 32.228 43.3232 31.9819 43.0361C31.7358 42.749 31.4136 42.6055 31.0151 42.6055Z" fill="black"/>
</svg>
