<svg width="24" height="24" viewBox="0 0 24 24" fill="none" xmlns="http://www.w3.org/2000/svg">
<circle cx="12" cy="12" r="11.5" fill="#E1EAF0" stroke="#B0C7D0"/>
<path d="M11.1743 15.252C11.1867 14.5221 11.2856 13.9346 11.4712 13.4893C11.6567 13.0439 12.0557 12.5213 12.668 11.9214C13.2803 11.3153 13.673 10.8885 13.8462 10.6411C14.0256 10.3875 14.1616 10.1123 14.2544 9.81543C14.3534 9.51237 14.4028 9.16911 14.4028 8.78564C14.4028 8.01253 14.1956 7.40641 13.7812 6.96729C13.373 6.52197 12.8009 6.29932 12.0649 6.29932C11.3228 6.29932 10.7228 6.5127 10.2651 6.93945C9.81364 7.36003 9.58171 7.93213 9.56934 8.65576H8.46533C8.4777 7.64144 8.82096 6.83122 9.49512 6.2251C10.1693 5.61279 11.0259 5.30664 12.0649 5.30664C13.1287 5.30664 13.9668 5.61898 14.5791 6.24365C15.1976 6.86214 15.5068 7.70329 15.5068 8.76709C15.5068 9.43506 15.3553 10.0628 15.0522 10.6504C14.7492 11.2318 14.174 11.9121 13.3267 12.6914C12.6278 13.279 12.2783 14.1325 12.2783 15.252H11.1743ZM11.0259 18.3506C11.0259 18.1403 11.0908 17.964 11.2207 17.8218C11.3568 17.6733 11.5454 17.5991 11.7866 17.5991C12.0216 17.5991 12.2072 17.6733 12.3433 17.8218C12.4855 17.964 12.5566 18.1403 12.5566 18.3506C12.5566 18.5547 12.4855 18.7279 12.3433 18.8701C12.2072 19.0062 12.0216 19.0742 11.7866 19.0742C11.5454 19.0742 11.3568 19.0062 11.2207 18.8701C11.0908 18.7279 11.0259 18.5547 11.0259 18.3506Z" fill="black"/>
</svg>
