<svg width="56" height="56" viewBox="0 0 56 56" fill="none" xmlns="http://www.w3.org/2000/svg">
<path d="M2.5 51.4375L1 55L4.83453 53.9542L2.5 51.4375Z" fill="#4B6F87"/>
<path d="M51 2L6.5 46.5L8.5 48.5L52.4811 3.48107L51 2Z" fill="#4B6F87"/>
<path d="M55 7L54 5L10.5 50.5L12 52L55 7Z" fill="#4B6F87"/>
<path d="M54 5L52.5 3.5L52.4811 3.48107L8.5 48.5L10.5 50.5L54 5Z" fill="#4B6F87"/>
<path d="M49 1L5 45L6.5 46.5L51 2L49 1Z" fill="#4B6F87"/>
<path d="M12 52L55 7L54 5M12 52L4.83453 53.9542M12 52L10.5 50.5M5 45L49 1L51 2M5 45L2.5 51.4375M5 45L6.5 46.5M54 5L52.5 3.5L52.4811 3.48107M54 5L10.5 50.5M2.5 51.4375L1 55L4.83453 53.9542M2.5 51.4375L4.83453 53.9542M6.5 46.5L51 2M6.5 46.5L8.5 48.5M51 2L52.4811 3.48107M52.4811 3.48107L8.5 48.5M8.5 48.5L10.5 50.5" stroke="black"/>
</svg>
