<svg width="42" height="50" viewBox="0 0 42 50" fill="none" xmlns="http://www.w3.org/2000/svg">
<rect width="42" height="42" fill="#4B6F87"/>
<rect x="4.5" y="39.5" width="33" height="10" rx="1.5" fill="#E1EAF0" stroke="#4B6F87"/>
<path d="M14.1313 45.5786C14.1313 44.8403 14.2954 44.2529 14.6235 43.8164C14.9546 43.377 15.4028 43.1572 15.9683 43.1572C16.6099 43.1572 17.0991 43.4106 17.436 43.9175V41.25H17.959V48H17.4668L17.4448 47.3672C17.1079 47.8477 16.6128 48.0879 15.9595 48.0879C15.4116 48.0879 14.9692 47.8682 14.6323 47.4287C14.2983 46.9863 14.1313 46.3901 14.1313 45.6401V45.5786ZM14.6631 45.6709C14.6631 46.2773 14.7847 46.7563 15.0278 47.1079C15.271 47.4565 15.6138 47.6309 16.0562 47.6309C16.7036 47.6309 17.1636 47.3452 17.436 46.7739V44.5415C17.1636 43.9233 16.7065 43.6143 16.0649 43.6143C15.6226 43.6143 15.2783 43.7886 15.0322 44.1372C14.7861 44.4829 14.6631 44.9941 14.6631 45.6709ZM19.0532 45.5522C19.0532 45.0952 19.1411 44.6836 19.3169 44.3174C19.4956 43.9512 19.7461 43.667 20.0684 43.4648C20.3936 43.2598 20.7612 43.1572 21.1714 43.1572C21.8042 43.1572 22.3169 43.3799 22.7095 43.8252C23.1021 44.2676 23.2983 44.855 23.2983 45.5874V45.6973C23.2983 46.1572 23.209 46.5718 23.0303 46.9409C22.8545 47.3071 22.6055 47.5898 22.2832 47.7891C21.9609 47.9883 21.5933 48.0879 21.1802 48.0879C20.5503 48.0879 20.0376 47.8667 19.6421 47.4243C19.2495 46.979 19.0532 46.3901 19.0532 45.6577V45.5522ZM19.5806 45.6973C19.5806 46.2656 19.7271 46.7329 20.02 47.0991C20.3159 47.4624 20.7026 47.644 21.1802 47.644C21.6548 47.644 22.0386 47.4624 22.3315 47.0991C22.6274 46.7329 22.7754 46.251 22.7754 45.6533V45.5522C22.7754 45.189 22.708 44.8564 22.5732 44.5547C22.4385 44.2529 22.2495 44.02 22.0063 43.856C21.7632 43.689 21.4849 43.6055 21.1714 43.6055C20.7026 43.6055 20.3203 43.79 20.0244 44.1592C19.7285 44.5254 19.5806 45.0059 19.5806 45.6006V45.6973ZM26.146 47.644C26.5122 47.644 26.8184 47.5415 27.0645 47.3364C27.3135 47.1284 27.4482 46.8604 27.4688 46.5322H27.9741C27.9595 46.8223 27.8687 47.0874 27.7017 47.3276C27.5347 47.5649 27.312 47.751 27.0337 47.8857C26.7583 48.0205 26.4624 48.0879 26.146 48.0879C25.522 48.0879 25.0269 47.8711 24.6606 47.4375C24.2974 47.0039 24.1157 46.4209 24.1157 45.6885V45.5303C24.1157 45.0615 24.1978 44.647 24.3618 44.2866C24.5259 43.9263 24.7603 43.6479 25.0649 43.4517C25.3726 43.2554 25.7314 43.1572 26.1416 43.1572C26.6631 43.1572 27.0923 43.3125 27.4292 43.623C27.769 43.9336 27.9507 44.3423 27.9741 44.8491H27.4688C27.4453 44.4771 27.3105 44.1768 27.0645 43.9482C26.8213 43.7197 26.5137 43.6055 26.1416 43.6055C25.667 43.6055 25.2979 43.7769 25.0342 44.1196C24.7734 44.4624 24.6431 44.9429 24.6431 45.561V45.7148C24.6431 46.3213 24.7734 46.7944 25.0342 47.1343C25.2979 47.4741 25.6685 47.644 26.146 47.644Z" fill="black"/>
<path d="M9 35H33V14L25 6H9V35Z" fill="#E1EAF0"/>
<path d="M25 6H9V35H33V14M25 6H33V14M25 6L33 14M14.5 15H27.5M14.5 25H27.5M14.5 20H27.5" stroke="black"/>
<path d="M33 6H25L33 14V6Z" fill="#B0C7D0"/>
</svg>
